<svg xmlns="http://www.w3.org/2000/svg" width="110.969" height="123.5" viewBox="0 0 110.969 123.5">
  <metadata><?xpacket begin="﻿" id="W5M0MpCehiHzreSzNTczkc9d"?>
<x:xmpmeta xmlns:x="adobe:ns:meta/" x:xmptk="Adobe XMP Core 5.6-c138 79.159824, 2016/09/14-01:09:01        ">
   <rdf:RDF xmlns:rdf="http://www.w3.org/1999/02/22-rdf-syntax-ns#">
      <rdf:Description rdf:about=""/>
   </rdf:RDF>
</x:xmpmeta>
                                                                                                    
                                                                                                    
                                                                                                    
                                                                                                    
                                                                                                    
                                                                                                    
                                                                                                    
                                                                                                    
                                                                                                    
                                                                                                    
                                                                                                    
                                                                                                    
                                                                                                    
                                                                                                    
                                                                                                    
                                                                                                    
                                                                                                    
                                                                                                    
                                                                                                    
                                                                                                    
                           
<?xpacket end="w"?></metadata>
<defs>
    <style>
      .cls-1 {
        fill: #00c7d9;
        fill-rule: evenodd;
      }
    </style>
  </defs>
  <path id="CALLCENTER" class="cls-1" d="M568.468,1032.95c-0.736,11.44,3.793,20.41,10.311,20.41s12.2-8.97,12.933-20.41-3.792-20.41-10.308-20.41S569.2,1021.5,568.468,1032.95Zm12.807-18.41c5.215,0,9.079,8.43,8.437,18.41s-5.589,18.41-10.8,18.41-9.081-8.43-8.44-18.41S576.059,1014.54,581.275,1014.54Zm73.324,10.74a51.16,51.16,0,0,0-10.829-35,42.907,42.907,0,0,0-33.126-16.023v-0.018l-0.519.011-0.278-.006c-0.067,0-.134,0-0.2,0v0.017c-27.569.425-39.46,18.431-40.892,30.874-9.134,4.57-15.746,15.66-16.528,27.82-1.065,16.56,8.7,30.03,21.758,30.03s24.552-13.47,25.617-30.03c0.894-13.91-5.929-26.04-16.314-29.22,1.081-9.947,3.54-27.221,26.688-27.478,20.745,0.263,32.219,21.943,32.177,44.008-0.5.03-1,.1-1.491,0.18-0.036,0-.067-0.02-0.105-0.02-13.478,0-26.656,14.04-27.647,29.45-0.948,14.75,6.534,29.66,22.594,31.32-9.02,8.63-23.908,13.93-41.217,10.78a4.967,4.967,0,0,0-.816-3,6.051,6.051,0,0,0-4.26-2.57l-7.566-1.06a7.044,7.044,0,0,0-7.661,4.71,5.016,5.016,0,0,0,.669,4.01,6.013,6.013,0,0,0,4.259,2.56l7.566,1.07a6.768,6.768,0,0,0,1.006.07,6.91,6.91,0,0,0,6.318-3.83,57.356,57.356,0,0,0,10.331.97c14.324,0,26.369-5.61,33.949-13.56,0.148,0,.291.01,0.439,0.01,11.344,0,23.483-15.64,24.507-31.57A33.488,33.488,0,0,0,654.6,1025.28Zm-73.391-20.84-0.087.81,0.774,0.2c9.959,2.58,16.564,14.15,15.705,27.5-0.994,15.46-11.531,28.03-23.488,28.03s-20.881-12.57-19.887-28.03c0.75-11.66,7.114-22.22,15.84-26.29l0.567-.26,0.055-.61c0.776-8.7,7.193-20.6,21.411-26.27C583.155,986.243,581.919,997.8,581.208,1004.44Zm5.673,91.27-7.567-1.07a4.147,4.147,0,0,1-2.965-1.75,3.1,3.1,0,0,1-.424-2.48,4.654,4.654,0,0,1,4.583-3.14,4.507,4.507,0,0,1,.731.05l7.565,1.06a4.186,4.186,0,0,1,2.967,1.76,3.08,3.08,0,0,1,.424,2.47C591.7,1094.61,589.3,1096.05,586.881,1095.71Zm40.287-115.755c17.347,7.936,26.592,27.325,25.423,45.505a42.08,42.08,0,0,1-.986,6.72l-0.139.61,0.471,0.36c3.984,3.08,6.267,9.6,5.815,16.63-0.654,10.17-6.593,18.45-13.238,18.45s-11.52-8.28-10.865-18.45c0.488-7.6,3.926-14.34,8.759-17.16l0.414-.24,0.1-.46a51.892,51.892,0,0,0,1.105-7.73C645.148,1006.77,639.18,988.84,627.168,979.955Zm14.86,44.235a49.848,49.848,0,0,1-.966,6.98c-5.218,3.3-8.894,10.54-9.413,18.61-0.684,10.63,4.357,19.39,11.427,20.35a29.893,29.893,0,0,1-5.7,9.13c-9.369-1.16-17.081-14.94-16.146-29.48,0.98-15.25,11.624-26.77,20.89-27.52C642.1,1022.9,642.069,1023.55,642.028,1024.19Zm-27.12,25.68a30.78,30.78,0,0,1,16.911-25.35c-6.8,5.28-11.923,14.85-12.592,25.26-0.733,11.39,3.409,22.07,9.707,27.61C618.818,1072.9,614.171,1061.33,614.908,1049.87Zm25,29.4a31.284,31.284,0,0,0,5.244-9.1c7.429-.58,13.9-9.49,14.6-20.39,0.482-7.49-1.832-14.26-6.063-17.86,0.27-1.26.48-2.53,0.64-3.79a31.819,31.819,0,0,1,6.7,21.65C660.106,1064.1,649.865,1078.15,639.909,1079.27Z" transform="translate(-552.125 -974.25)"/>
</svg>
