<svg xmlns="http://www.w3.org/2000/svg" width="119.688" height="119.684" viewBox="0 0 119.688 119.684">
  <metadata><?xpacket begin="﻿" id="W5M0MpCehiHzreSzNTczkc9d"?>
<x:xmpmeta xmlns:x="adobe:ns:meta/" x:xmptk="Adobe XMP Core 5.6-c138 79.159824, 2016/09/14-01:09:01        ">
   <rdf:RDF xmlns:rdf="http://www.w3.org/1999/02/22-rdf-syntax-ns#">
      <rdf:Description rdf:about=""/>
   </rdf:RDF>
</x:xmpmeta>
                                                                                                    
                                                                                                    
                                                                                                    
                                                                                                    
                                                                                                    
                                                                                                    
                                                                                                    
                                                                                                    
                                                                                                    
                                                                                                    
                                                                                                    
                                                                                                    
                                                                                                    
                                                                                                    
                                                                                                    
                                                                                                    
                                                                                                    
                                                                                                    
                                                                                                    
                                                                                                    
                           
<?xpacket end="w"?></metadata>
<defs>
    <style>
      .cls-1 {
        fill: #00c7d9;
        fill-rule: evenodd;
      }
    </style>
  </defs>
  <path id="CELLOK" class="cls-1" d="M798.394,976.144a5,5,0,1,0,0,10,49.518,49.518,0,0,1,49.462,49.467,5,5,0,0,0,10,0A59.531,59.531,0,0,0,798.394,976.144Zm0,106.976a2.5,2.5,0,0,0-2.5,2.5v7.74a2.5,2.5,0,0,0,5,0v-7.74A2.5,2.5,0,0,0,798.392,1083.12Zm-26.108-90.732a1,1,0,0,0,1.733-1l-3.634-6.294a1,1,0,0,0-1.733,1Zm52.2,86.4a1,1,0,0,0-1.732,1l3.653,6.33a1,1,0,1,0,1.733-1Zm24.425-15.17-6.219-3.6a1,1,0,0,0-1,1.74l6.219,3.59A1,1,0,0,0,848.9,1063.62Zm-93.652-54.07-6.372-3.68a0.993,0.993,0,0,0-1.366.36,1,1,0,0,0,.366,1.37l6.372,3.68A1,1,0,0,0,755.252,1009.55Zm-4.933,26.06a2.5,2.5,0,0,0-2.5-2.5h-7.175a2.5,2.5,0,0,0,0,5h7.175A2.5,2.5,0,0,0,750.319,1035.61Zm3.825,24.39-6.263,3.61a1,1,0,0,0,1,1.74l6.263-3.62A1,1,0,0,0,754.144,1060Zm19.511,18.46a0.992,0.992,0,0,0-1.365.36l-3.637,6.3a0.99,0.99,0,0,0,.366,1.36,0.916,0.916,0,0,0,.5.14,1,1,0,0,0,.866-0.5l3.637-6.3A0.991,0.991,0,0,0,773.655,1078.46Zm56.014-75.35L796.017,993.1a4.814,4.814,0,0,0-5.985,3.242L769.87,1064.12a4.818,4.818,0,0,0,3.242,5.99l33.65,10.01a4.823,4.823,0,0,0,5.986-3.25l20.163-67.78A4.812,4.812,0,0,0,829.669,1003.11Zm-34.933,66.84a3.129,3.129,0,1,1-2.107-3.89A3.13,3.13,0,0,1,794.736,1069.95Zm17.169-.79-37.11-11.04,18.038-60.641,37.109,11.041Zm6.618-53.49c-8.715,8.01-20.981,21.3-20.981,21.3s-4.2-3.26-8.808-7.73c0,0,6.445,10.92,9.2,16.63C800.4,1040.26,809.594,1027.99,818.523,1015.67Z" transform="translate(-738.156 -976.156)"/>
</svg>
