<svg xmlns="http://www.w3.org/2000/svg" width="89.316" height="115.316" viewBox="0 0 89.316 115.316">
  <metadata><?xpacket begin="﻿" id="W5M0MpCehiHzreSzNTczkc9d"?>
<x:xmpmeta xmlns:x="adobe:ns:meta/" x:xmptk="Adobe XMP Core 5.6-c138 79.159824, 2016/09/14-01:09:01        ">
   <rdf:RDF xmlns:rdf="http://www.w3.org/1999/02/22-rdf-syntax-ns#">
      <rdf:Description rdf:about=""/>
   </rdf:RDF>
</x:xmpmeta>
                                                                                                    
                                                                                                    
                                                                                                    
                                                                                                    
                                                                                                    
                                                                                                    
                                                                                                    
                                                                                                    
                                                                                                    
                                                                                                    
                                                                                                    
                                                                                                    
                                                                                                    
                                                                                                    
                                                                                                    
                                                                                                    
                                                                                                    
                                                                                                    
                                                                                                    
                                                                                                    
                           
<?xpacket end="w"?></metadata>
<defs>
    <style>
      .cls-1 {
        fill: #00c7d9;
        fill-rule: evenodd;
      }
    </style>
  </defs>
  <path id="EARTH" class="cls-1" d="M1000.8,1073.56a45.085,45.085,0,0,1-42.362-29.68,1.5,1.5,0,1,1,2.82-1.02,42.058,42.058,0,0,0,53.8,25.18,1.5,1.5,0,1,1,1.03,2.82A44.793,44.793,0,0,1,1000.8,1073.56Zm24.31,20.59H970.834a1.5,1.5,0,1,1,0-3h54.276A1.5,1.5,0,1,1,1025.11,1094.15Zm-27.139-.08a1.5,1.5,0,0,1-1.5-1.5v-20.51a1.5,1.5,0,0,1,3,0v20.51A1.5,1.5,0,0,1,997.971,1094.07Zm5.149-26.18h0a44.52,44.52,0,1,1,41.77-29.16A44.457,44.457,0,0,1,1003.12,1067.89Zm0.01-87.042a42.673,42.673,0,0,0-39.9,27.842,42.545,42.545,0,0,0,39.891,57.2h0a42.66,42.66,0,0,0,39.89-27.85A42.53,42.53,0,0,0,1003.13,980.848Zm38.93,41.542a107.1,107.1,0,0,1-36.06-6.85c-13.817-5.09-26.35-12.62-35.288-21.213a1,1,0,1,1,1.387-1.441c8.743,8.4,21.028,15.784,34.591,20.774,13.48,4.96,27.54,7.31,39.58,6.61a1.011,1.011,0,0,1,1.06.94,1,1,0,0,1-.95,1.06Q1044.265,1022.39,1042.06,1022.39Zm-13.73-23.021A44.593,44.593,0,0,1,992.7,981.536a1,1,0,1,1,1.6-1.2,42.543,42.543,0,0,0,43.427,15.973,1,1,0,0,1,.44,1.95A44.249,44.249,0,0,1,1028.33,999.369Zm6.53,54.071a1,1,0,0,1-.67-0.25c-8.88-7.95-21.19-15.06-34.676-20.02-13.576-4.99-27.661-7.55-39.611-7.23a1,1,0,1,1-.056-1.99c12.236-.35,26.549,2.26,40.363,7.34,13.71,5.05,26.25,12.29,35.32,20.41a1.006,1.006,0,0,1,.08,1.41A1.017,1.017,0,0,1,1034.86,1053.44Zm-21.79,12.47a1.013,1.013,0,0,1-.8-0.4,42.544,42.544,0,0,0-43.423-15.98,1,1,0,1,1-.444-1.95,44.528,44.528,0,0,1,45.467,16.73,1,1,0,0,1-.2,1.4A0.963,0.963,0,0,1,1013.07,1065.91Zm-44.035-15.05a0.994,0.994,0,0,1-.975-0.78c-2.715-12.2-1.626-25.95,3.067-38.71,4.726-12.841,12.874-24.067,22.942-31.606a1,1,0,0,1,1.2,1.6c-9.764,7.31-17.671,18.213-22.265,30.705-4.563,12.4-5.625,25.74-2.991,37.58a1,1,0,0,1-.76,1.19A0.806,0.806,0,0,1,969.035,1050.86Zm42.875,16.04a1,1,0,0,1-.61-1.8c9.68-7.3,17.52-18.16,22.08-30.56,4.59-12.48,5.64-25.91,2.94-37.8a1,1,0,0,1,.76-1.2,0.994,0.994,0,0,1,1.19.754c2.78,12.268,1.71,26.1-3.01,38.938-4.7,12.76-12.78,23.93-22.75,31.47A1.029,1.029,0,0,1,1011.91,1066.9Zm-31.361-5.82a0.722,0.722,0,0,1-.146-0.01,0.993,0.993,0,0,1-.844-1.13c1.763-12.04,5.665-26.64,10.985-41.1,5.356-14.56,11.886-28.278,18.4-38.625a1,1,0,0,1,1.38-.315,0.992,0.992,0,0,1,.31,1.379c-6.43,10.233-12.9,23.821-18.209,38.251-5.274,14.33-9.139,28.79-10.884,40.7A0.993,0.993,0,0,1,980.549,1061.08Zm16.049,5.91a1.025,1.025,0,0,1-.531-0.15,1,1,0,0,1-.316-1.38c6.389-10.2,12.809-23.71,18.089-38.05,5.31-14.44,9.19-28.973,10.92-40.934a1,1,0,0,1,1.98.286c-1.75,12.1-5.67,26.778-11.02,41.338-5.33,14.47-11.81,28.11-18.274,38.42A1.007,1.007,0,0,1,996.6,1066.99Z" transform="translate(-958.344 -978.844)"/>
</svg>
