<svg xmlns="http://www.w3.org/2000/svg" width="112.316" height="109.906" viewBox="0 0 112.316 109.906">
  <metadata><?xpacket begin="﻿" id="W5M0MpCehiHzreSzNTczkc9d"?>
<x:xmpmeta xmlns:x="adobe:ns:meta/" x:xmptk="Adobe XMP Core 5.6-c138 79.159824, 2016/09/14-01:09:01        ">
   <rdf:RDF xmlns:rdf="http://www.w3.org/1999/02/22-rdf-syntax-ns#">
      <rdf:Description rdf:about=""/>
   </rdf:RDF>
</x:xmpmeta>
                                                                                                    
                                                                                                    
                                                                                                    
                                                                                                    
                                                                                                    
                                                                                                    
                                                                                                    
                                                                                                    
                                                                                                    
                                                                                                    
                                                                                                    
                                                                                                    
                                                                                                    
                                                                                                    
                                                                                                    
                                                                                                    
                                                                                                    
                                                                                                    
                                                                                                    
                                                                                                    
                           
<?xpacket end="w"?></metadata>
<defs>
    <style>
      .cls-1 {
        fill: #00c7d9;
        stroke: #fff;
        stroke-linejoin: round;
        stroke-width: 2px;
      }

      .cls-1, .cls-2 {
        fill-rule: evenodd;
      }

      .cls-2 {
        fill: #fff;
      }
    </style>
  </defs>
  <path id="_3" data-name="3" class="cls-1" d="M1019.38,635.37l-53.947-14.454-39.489,39.49L940.4,714.35,994.342,728.8l39.488-39.49Z" transform="translate(-923.844 -619.906)"/>
  <path id="razrab" class="cls-2" d="M959.009,646.334A12.994,12.994,0,1,0,972,659.328,13.009,13.009,0,0,0,959.009,646.334Zm0,23.987A10.994,10.994,0,1,1,970,659.328,11.006,11.006,0,0,1,959.009,670.321Zm0-33.314a22.32,22.32,0,1,0,22.318,22.321A22.347,22.347,0,0,0,959.01,637.007Zm0,42.64a20.32,20.32,0,1,1,20.318-20.319A20.344,20.344,0,0,1,959.01,679.647Zm77.14,17.944v-6.832h-5.3a24.581,24.581,0,0,0-1.55-5.809l4.58-2.645-3.42-5.917-4.58,2.648a24.5,24.5,0,0,0-4.25-4.251l2.65-4.584-5.92-3.416-2.64,4.581a24.344,24.344,0,0,0-5.81-1.549v-5.3h-6.83v5.3a24.339,24.339,0,0,0-5.811,1.549l-2.643-4.581-5.919,3.416,1.019,1.762-3.476-2.007a29.131,29.131,0,0,0,1.653-6.213h6.261v-8.831H987.9a29.072,29.072,0,0,0-1.653-6.213l5.412-3.126-4.416-7.648-5.419,3.129a29.337,29.337,0,0,0-4.546-4.545l3.13-5.418-7.648-4.417-3.126,5.413a29.124,29.124,0,0,0-6.212-1.654v-6.261h-8.831v6.261a29.117,29.117,0,0,0-6.214,1.655l-3.124-5.413-7.648,4.415,3.127,5.419a29.368,29.368,0,0,0-4.544,4.545l-5.419-3.129-4.417,7.649,5.414,3.125a28.93,28.93,0,0,0-1.654,6.213h-6.261v8.831h6.26a29.046,29.046,0,0,0,1.655,6.214l-5.414,3.125,4.417,7.646,5.419-3.129a29.256,29.256,0,0,0,4.545,4.547l-3.128,5.42,7.648,4.415,3.125-5.413a28.985,28.985,0,0,0,6.213,1.654v6.261h8.831v-6.261a29.016,29.016,0,0,0,6.213-1.654l3.125,5.413,7.648-4.417-3.129-5.418a29.482,29.482,0,0,0,4.525-4.52l-2.7,4.679,4.579,2.645a24.387,24.387,0,0,0-1.548,5.809h-5.3v6.832h5.3a24.443,24.443,0,0,0,1.548,5.808l-4.579,2.644,3.416,5.917,4.583-2.648a24.612,24.612,0,0,0,4.252,4.251l-2.649,4.584,5.919,3.416,2.643-4.58a24.337,24.337,0,0,0,5.811,1.548v5.3h6.83v-5.3a24.531,24.531,0,0,0,5.81-1.548l2.64,4.581,5.92-3.419-2.65-4.582a24.5,24.5,0,0,0,4.25-4.251l4.58,2.648,3.42-5.917-4.58-2.644a24.574,24.574,0,0,0,1.55-5.808h5.3Zm-44.794-22.806c-0.456.356-.895,0.733-1.324,1.12l0.986-1.707Zm-10.582.913a27.406,27.406,0,0,1-5.395,5.394l-0.707.533,3.007,5.206-4.184,2.418-3-5.205-0.815.348a27,27,0,0,1-7.37,1.964l-0.88.106v6.021h-4.831v-6.021l-0.881-.106a26.99,26.99,0,0,1-7.369-1.964l-0.816-.348-3,5.205-4.183-2.415,3.007-5.209-0.707-.533a27.282,27.282,0,0,1-5.395-5.4l-0.533-.707L931.5,678l-2.416-4.182,5.2-3-0.348-.815a27.044,27.044,0,0,1-1.964-7.371l-0.106-.88h-6.02v-4.831h6.022l0.105-.881a26.993,26.993,0,0,1,1.963-7.369l0.348-.816-5.2-3,2.416-4.183,5.208,3.006,0.532-.707a27.379,27.379,0,0,1,5.395-5.394l0.707-.532-3.007-5.208,4.184-2.415,3,5.2,0.815-.347a27.058,27.058,0,0,1,7.372-1.964l0.88-.107v-6.02h4.831v6.02l0.88,0.107a27.059,27.059,0,0,1,7.37,1.963l0.815,0.348,3-5.2,4.184,2.415-3.01,5.209,0.709,0.533a27.357,27.357,0,0,1,5.4,5.394l0.534,0.706,5.206-3.006,2.416,4.184-5.2,3,0.346,0.815a27.11,27.11,0,0,1,1.962,7.371l0.107,0.88h6.02v4.831h-6.02l-0.107.88A27.117,27.117,0,0,1,984.075,670l-0.346.814,5.2,3L986.514,678l-5.206-3Zm49.146,21.334a23.33,23.33,0,0,1-1.71,6.385l-0.17.408,4.48,2.584-2.42,4.184-4.48-2.588-0.27.354a23.56,23.56,0,0,1-4.67,4.675l-0.35.266,2.58,4.48-4.18,2.417-2.59-4.478-0.4.174a23.506,23.506,0,0,1-6.39,1.7l-0.44.053v5.18h-4.83v-5.18l-0.44-.053a23.381,23.381,0,0,1-6.389-1.7l-0.408-.174-2.584,4.479-4.185-2.416,2.589-4.483-0.353-.265a23.649,23.649,0,0,1-4.677-4.675l-0.267-.354-4.479,2.588-2.416-4.184,4.476-2.584-0.174-.407a23.534,23.534,0,0,1-1.7-6.386l-0.052-.441H977.84v-4.832h5.179l0.052-.44a23.483,23.483,0,0,1,1.7-6.387l0.174-.408-4.476-2.584,2.217-3.842,4.558,2.63,0.525-.909a23.678,23.678,0,0,1,4.539-4.5l0.353-.267L991.6,673.2l0.067-.117-0.2-.118-1.386-2.4,4.185-2.416,2.584,4.479,0.408-.174a23.357,23.357,0,0,1,6.389-1.7l0.44-.052v-5.18h4.83v5.18l0.44,0.052a23.328,23.328,0,0,1,6.39,1.7l0.4,0.174,2.59-4.479,4.18,2.416-2.59,4.48,0.36,0.267a23.861,23.861,0,0,1,4.67,4.676l0.27,0.353,4.48-2.588,2.42,4.185-4.48,2.584,0.17,0.408a23.353,23.353,0,0,1,1.71,6.387l0.05,0.44h5.18v4.832h-5.18ZM1006.49,677.3a16.869,16.869,0,1,0,16.87,16.869A16.888,16.888,0,0,0,1006.49,677.3Zm0,32.738a15.869,15.869,0,1,1,15.87-15.869A15.887,15.887,0,0,1,1006.49,710.042Z" transform="translate(-923.844 -619.906)"/>
</svg>
