<svg xmlns="http://www.w3.org/2000/svg" width="122.5" height="109.906" viewBox="0 0 122.5 109.906">
  <metadata><?xpacket begin="﻿" id="W5M0MpCehiHzreSzNTczkc9d"?>
<x:xmpmeta xmlns:x="adobe:ns:meta/" x:xmptk="Adobe XMP Core 5.6-c138 79.159824, 2016/09/14-01:09:01        ">
   <rdf:RDF xmlns:rdf="http://www.w3.org/1999/02/22-rdf-syntax-ns#">
      <rdf:Description rdf:about=""/>
   </rdf:RDF>
</x:xmpmeta>
                                                                                                    
                                                                                                    
                                                                                                    
                                                                                                    
                                                                                                    
                                                                                                    
                                                                                                    
                                                                                                    
                                                                                                    
                                                                                                    
                                                                                                    
                                                                                                    
                                                                                                    
                                                                                                    
                                                                                                    
                                                                                                    
                                                                                                    
                                                                                                    
                                                                                                    
                                                                                                    
                           
<?xpacket end="w"?></metadata>
<defs>
    <style>
      .cls-1 {
        fill: #00c7d9;
        stroke: #fff;
        stroke-linejoin: round;
        stroke-width: 2px;
      }

      .cls-1, .cls-2 {
        fill-rule: evenodd;
      }

      .cls-2 {
        fill: #fff;
      }
    </style>
  </defs>
  <path id="_1" data-name="1" class="cls-1" d="M619.377,635.37l-53.944-14.454-39.489,39.49L540.4,714.35,594.342,728.8l39.49-39.49Z" transform="translate(-518.75 -619.906)"/>
  <path id="HANDSHAKE" class="cls-2" d="M531.667,636.115L518.76,668.323l13.671,5.536,12.907-32.208Zm-0.345,35.136-9.965-4.034,11.419-28.494,9.965,4.033Zm93.212-33.082-12.2,6.587,15.9,30.9,13-7.023Zm-9.52,7.416,8.721-4.711,14.785,26.96-9.435,5.1Zm-3.667,1.239-0.51-.973-0.921.6a7.335,7.335,0,0,1-3.95,1.05,9.516,9.516,0,0,1-5.663-1.894l-0.6-.443c-2.656-1.973-6.294-4.674-11.263-4.674a16.453,16.453,0,0,0-7.83,2.17c-0.217.117-.437,0.239-0.656,0.36-3.971-3.454-11.8-3.446-16.575-1-4.488,2.3-8.992,4.044-14.723.067l-1.032-.715-0.467,1.166c-0.986,2.465-12.627,30.455-12.744,30.737l-0.242.579,0.417,0.47s8.217,9.243,9.7,10.93c-1.714,2.607-1.836,5.769-.527,7.429,1.214,1.541,2.7,3.184,4.947,3.184a5.331,5.331,0,0,0,1.831-.345c-1.038,2.226-1.31,4.726.894,6.766,1.522,1.41,2.684,2.226,4.123,2.226,1.2,0,2.38-.58,3.982-1.8-0.773,1.872-.816,3.677.489,5.245,1.4,1.684,2.834,2.5,4.375,2.5,1.907,0,3.775-1.284,5.745-3.075a4.538,4.538,0,0,0,.884,4.529,5.233,5.233,0,0,0,3.974,1.962c2.141,0,4.486-1.428,6.97-4.242a22.276,22.276,0,0,0,2.035-2.663,8.715,8.715,0,0,0,5.507,2.04,7.688,7.688,0,0,0,3.33-.738,6.066,6.066,0,0,0,3.288-3.725c3.51,2.917,7.218,2.611,9.577.794a6.559,6.559,0,0,0,2.306-6.766,7.089,7.089,0,0,0,6.67-1.981,5.736,5.736,0,0,0,.361-7.764c3.753-3.89,7.331-7.794,8.723-9.314l0.172-.187c0.142-.155.287-0.3,0.43-0.448,1.6-1.636,2.643-3.2.317-7.114C622.361,667.846,611.457,647.034,611.347,646.824Zm-62.635,47.047c-1.222,0-2.2-.927-3.377-2.422-0.847-1.074-.72-4.417,2.029-6.655l0.565-.463c1.71-1.406,3.326-2.734,4.773-2.734a3.173,3.173,0,0,1,2.255,1.175,4.7,4.7,0,0,1,1.592,3.493,5.908,5.908,0,0,1-1.516,3.291c-0.132.142-.262,0.285-0.39,0.424l-0.42.46-0.145.157c-0.384.385-.8,0.776-1.273,1.174C551.127,693.184,549.789,693.871,548.712,693.871Zm6.848,8.647c-0.683,0-1.432-.459-2.765-1.693-0.793-.735-2.887-2.685,2.815-8.934,0.3-.3.571-0.6,0.822-0.9,2.173-2.372,5.035-5.377,7.5-5.377a3.475,3.475,0,0,1,2.542,1.249,3.62,3.62,0,0,1,1.1,2.757c-0.1,2.376-2.309,5.494-6.57,9.266C558.35,701.24,556.692,702.518,555.56,702.518Zm15.08,1.639c-2.752,2.731-4.655,4.312-6.234,4.312-0.581,0-1.507-.186-2.838-1.783-1-1.2-1.31-3.206,3.985-8.938l0.608-.663c1.947-2.13,4.613-5.047,6.826-5.047a2.887,2.887,0,0,1,2.107,1.039C577.387,695.474,576.055,698.787,570.64,704.157Zm9.839,4.162c-2.058,2.332-3.95,3.566-5.47,3.566a3.289,3.289,0,0,1-2.48-1.291c-0.876-.987-1.385-2.733,2.479-7.522,1.717-2.129,3.551-4.1,5.324-4.1a2.943,2.943,0,0,1,1.886.779,3.454,3.454,0,0,1,1.409,2.414C583.752,703.74,582.692,705.81,580.479,708.319Zm42.469-30.828c-0.157.161-.317,0.325-0.474,0.5l-0.172.189c-1.373,1.5-4.876,5.32-8.567,9.148l-1.19-1.316c-5.931-6.561-23.978-26.527-26.127-28.677-1.288-1.288-2.426-2.146-3.787-2.146a6.544,6.544,0,0,0-3.024,1.077l-1.127.617c-2.409,1.321-6.44,3.53-13.357,7.148-3.1,1.623-5.286,1.316-6.129-.963a4.139,4.139,0,0,1,.118-3.517,186.566,186.566,0,0,1,22.451-15.129,14.481,14.481,0,0,1,6.877-1.929c4.308,0,7.5,2.373,10.07,4.28l0.609,0.451a11.505,11.505,0,0,0,6.847,2.279,9.842,9.842,0,0,0,4.081-.846c2.155,4.108,10.821,20.6,12.93,24.146C624.7,675.7,624.078,676.338,622.948,677.491ZM612.98,689.47s0-.007-0.006-0.01l-1.912-2.11C605.14,680.8,587.117,660.859,585,658.745c-1.375-1.375-1.972-1.56-2.373-1.56a5.222,5.222,0,0,0-2.066.833l-1.125.615c-2.415,1.324-6.448,3.555-13.391,7.166-3.571,1.858-7.073,1.817-8.93-2.041-0.978-2.031-.466-4.737.691-5.729a198.315,198.315,0,0,1,20.263-13.938c-3.468-2.4-9.98-2.24-13.78-.288-4.393,2.256-9.562,4.309-15.737.605-2.186,5.324-10.526,25.381-12.056,29.06,1.617,1.819,7.447,8.379,9.086,10.234,0.165-.157.334-0.311,0.515-0.459l0.558-.457c2-1.64,3.88-3.189,6.043-3.189a5.105,5.105,0,0,1,3.7,1.79,6.775,6.775,0,0,1,2.145,4.688,8.78,8.78,0,0,1,5.392-2.464,5.438,5.438,0,0,1,3.987,1.866,5.6,5.6,0,0,1,1.656,4.222,7.048,7.048,0,0,1-.326,1.715,6.688,6.688,0,0,1,3.733-1.376,4.844,4.844,0,0,1,3.552,1.656,5.6,5.6,0,0,1,1.274,5.982,5.185,5.185,0,0,1,2.519-.7,4.918,4.918,0,0,1,3.158,1.236,5.412,5.412,0,0,1,2.13,3.8,6.681,6.681,0,0,1-.635,3.182,6.385,6.385,0,0,0,6.994,1.291,3.908,3.908,0,0,0,2.366-3.738l-9.294-11.062a1,1,0,0,1,1.531-1.287l9.5,11.306c3.073,3.533,6.44,3.584,8.415,2.065,1.653-1.274,2.559-3.929.658-6.758L593.8,683.488a1,1,0,0,1,1.531-1.287l11.335,13.491a4.852,4.852,0,0,0,6.587-.473c0.606-.631,2.377-2.911-0.269-5.749" transform="translate(-518.75 -619.906)"/>
</svg>
