<svg xmlns="http://www.w3.org/2000/svg" width="131" height="126" viewBox="0 0 131 126">
  <metadata><?xpacket begin="﻿" id="W5M0MpCehiHzreSzNTczkc9d"?>
<x:xmpmeta xmlns:x="adobe:ns:meta/" x:xmptk="Adobe XMP Core 5.6-c138 79.159824, 2016/09/14-01:09:01        ">
   <rdf:RDF xmlns:rdf="http://www.w3.org/1999/02/22-rdf-syntax-ns#">
      <rdf:Description rdf:about=""/>
   </rdf:RDF>
</x:xmpmeta>
                                                                                                    
                                                                                                    
                                                                                                    
                                                                                                    
                                                                                                    
                                                                                                    
                                                                                                    
                                                                                                    
                                                                                                    
                                                                                                    
                                                                                                    
                                                                                                    
                                                                                                    
                                                                                                    
                                                                                                    
                                                                                                    
                                                                                                    
                                                                                                    
                                                                                                    
                                                                                                    
                           
<?xpacket end="w"?></metadata>
<defs>
    <style>
      .cls-1 {
        fill: #00c7d9;
        stroke: #fff;
        stroke-width: 2px;
      }

      .cls-1, .cls-2 {
        stroke-linejoin: round;
        fill-rule: evenodd;
      }

      .cls-2 {
        fill: #fff;
        stroke: #00c7d9;
        stroke-width: 1px;
      }
    </style>
  </defs>
  <path id="_2" data-name="2" class="cls-1" d="M819.377,635.37l-53.944-14.454-39.489,39.49L740.4,714.35,794.342,728.8l39.49-39.49Z" transform="translate(-714.5 -608.5)"/>
  <path id="provider" class="cls-2" d="M788,726.821v-9.793H772v9.793H756.331v4.25h47.337v-4.25H788Zm34.5-71.666h-85a5,5,0,0,0-5,5v50a5,5,0,0,0,5,5h85a5,5,0,0,0,5-5v-50A5,5,0,0,0,822.5,655.155Zm1.5,53.791H736v-50h88v50Zm-85.663-59.033v-3.036h-5.574v3.036H727.3v2.1H743.8v-2.1h-5.459Zm63.247,15.18c-9.7,8.916-23.362,23.718-23.362,23.718s-4.675-3.634-9.809-8.605c0,0,7.176,12.154,10.245,18.52C781.4,692.478,791.641,678.808,801.584,665.093Zm-51.2-17.216H720.717a3,3,0,0,1-3-3V628.783a3,3,0,0,1,3-3h29.667a3,3,0,0,1,3,3v16.094A3,3,0,0,1,750.384,647.877Zm-29.667-20.094a1,1,0,0,0-1,1v16.094a1,1,0,0,0,1,1h29.667a1,1,0,0,0,1-1V628.783a1,1,0,0,0-1-1H720.717Zm106.519,22.13v-3.036h-5.574v3.036H816.2v2.1H832.7v-2.1h-5.459Zm12.047-2.036H809.616a3,3,0,0,1-3-3V628.783a3,3,0,0,1,3-3h29.667a3,3,0,0,1,3,3v16.094A3,3,0,0,1,839.283,647.877Zm-29.667-20.094a1,1,0,0,0-1,1v16.094a1,1,0,0,0,1,1h29.667a1,1,0,0,0,1-1V628.783a1,1,0,0,0-1-1H809.616Zm-26.831,8.192v-3.7h-5.574v3.7h-5.459v2.059h16.492v-2.059h-5.459Zm12.047-2.7H765.165a3,3,0,0,1-3-3V614.179a3,3,0,0,1,3-3h29.667a3,3,0,0,1,3,3v16.094A3,3,0,0,1,794.832,633.273Zm-29.667-20.094a1,1,0,0,0-1,1v16.094a1,1,0,0,0,1,1h29.667a1,1,0,0,0,1-1V614.179a1,1,0,0,0-1-1H765.165Z" transform="translate(-714.5 -608.5)"/>
</svg>
