<svg xmlns="http://www.w3.org/2000/svg" width="120.562" height="91.876" viewBox="0 0 120.562 91.876">
  <metadata><?xpacket begin="﻿" id="W5M0MpCehiHzreSzNTczkc9d"?>
<x:xmpmeta xmlns:x="adobe:ns:meta/" x:xmptk="Adobe XMP Core 5.6-c138 79.159824, 2016/09/14-01:09:01        ">
   <rdf:RDF xmlns:rdf="http://www.w3.org/1999/02/22-rdf-syntax-ns#">
      <rdf:Description rdf:about=""/>
   </rdf:RDF>
</x:xmpmeta>
                                                                                                    
                                                                                                    
                                                                                                    
                                                                                                    
                                                                                                    
                                                                                                    
                                                                                                    
                                                                                                    
                                                                                                    
                                                                                                    
                                                                                                    
                                                                                                    
                                                                                                    
                                                                                                    
                                                                                                    
                                                                                                    
                                                                                                    
                                                                                                    
                                                                                                    
                                                                                                    
                           
<?xpacket end="w"?></metadata>
<defs>
    <style>
      .cls-1 {
        fill: #315659;
        fill-rule: evenodd;
      }
    </style>
  </defs>
  <path id="MobilePayments" class="cls-1" d="M809.277,125.051H754.3a4.363,4.363,0,0,0-4.363,4.364v83.17a4.363,4.363,0,0,0,4.363,4.363h54.98a4.363,4.363,0,0,0,4.363-4.363v-83.17A4.363,4.363,0,0,0,809.277,125.051Zm-22.254,88.572H776.551v-3.3h10.472v3.3ZM810.8,207H752.77V130.208H810.8V207Zm24.742-40.756v7.078H819.91a3.34,3.34,0,0,0-3.34,3.34v36.944a3.34,3.34,0,0,0,3.34,3.339h16.034a3.341,3.341,0,0,0,3.341-3.339V166.247h-3.739Zm-11.62,42.574h-5.435v-4.508h5.435A4.574,4.574,0,0,0,823.926,208.821Zm4,1a3.007,3.007,0,1,1,3.007-3.007A3.007,3.007,0,0,1,827.927,209.825Zm9.435-1h-5.436a4.574,4.574,0,0,0,0-4.508h5.436v4.508Zm-0.249-6.848H818.741v-24.7h18.372v24.7Zm-93.549-34.228h-21.3a3.55,3.55,0,0,0-3.55,3.55v42.1a3.55,3.55,0,0,0,3.55,3.55h21.3a3.55,3.55,0,0,0,3.55-3.55V171.3A3.55,3.55,0,0,0,743.564,167.745Zm-10.649,47.106a2.141,2.141,0,1,1,2.14-2.141A2.14,2.14,0,0,1,732.915,214.851Zm11.892-5.994H721.023V171.941h23.784v36.916Z" transform="translate(-718.719 -125.062)"/>
</svg>
