<svg xmlns="http://www.w3.org/2000/svg" width="124.124" height="82.062" viewBox="0 0 124.124 82.062">
  <metadata><?xpacket begin="﻿" id="W5M0MpCehiHzreSzNTczkc9d"?>
<x:xmpmeta xmlns:x="adobe:ns:meta/" x:xmptk="Adobe XMP Core 5.6-c138 79.159824, 2016/09/14-01:09:01        ">
   <rdf:RDF xmlns:rdf="http://www.w3.org/1999/02/22-rdf-syntax-ns#">
      <rdf:Description rdf:about=""/>
   </rdf:RDF>
</x:xmpmeta>
                                                                                                    
                                                                                                    
                                                                                                    
                                                                                                    
                                                                                                    
                                                                                                    
                                                                                                    
                                                                                                    
                                                                                                    
                                                                                                    
                                                                                                    
                                                                                                    
                                                                                                    
                                                                                                    
                                                                                                    
                                                                                                    
                                                                                                    
                                                                                                    
                                                                                                    
                                                                                                    
                           
<?xpacket end="w"?></metadata>
<defs>
    <style>
      .cls-1 {
        fill: #315659;
        fill-rule: evenodd;
      }
    </style>
  </defs>
  <path id="Partners" class="cls-1" d="M607.259,179.928c-2.442-3.663-4.169-4.375-11.373-4.633-0.377-.337-0.91-0.883-1.371-1.355-1.362-1.394-3.025-3.088-4.355-3.66-0.049-3.111.006-5.691,0.015-6.1a23.991,23.991,0,0,0,2.069-6.5,1.792,1.792,0,0,0,.258.024c1.41,0,2.56-1.7,2.619-3.87,0.056-2.206-1.024-3.965-2.5-4-0.031,0-.061.007-0.091,0.009,0.745-2.669,2.406-12.973-3.49-16.985a17.754,17.754,0,0,0-9.916-2.873c-3.5,0-6.682.943-8.375,2.472-2.12.027-3.817,1.305-4.912,3.7-1.948,4.268-1.642,11.422-.631,13.687-1.371.069-2.477,1.732-2.534,3.857-0.057,2.207,1.022,3.965,2.5,4a1.777,1.777,0,0,0,.4-0.047,24.122,24.122,0,0,0,1.92,6.225c0.066,2.047-.337,6.263-0.457,7.447a4.966,4.966,0,0,0-1.957,1.33,6.788,6.788,0,0,1-3.606,2.058l-0.329.074-0.054.334c-0.025.154-.045,0.3-0.067,0.456-4.578.013-9.061,0.773-10.992,6.035a74.523,74.523,0,0,0-4.111,17.788,8.141,8.141,0,0,0,3.07,6.884,11.533,11.533,0,0,0,9.414,2.93,81.632,81.632,0,0,0,14.971,2.558,1.109,1.109,0,0,0,.126.067l0.114,0.025a31.291,31.291,0,0,0,3.231.151h0c0.527,0,1.023-.01,1.474-0.024,0.336,0,.672.016,1.006,0.016a74.436,74.436,0,0,0,19.746-2.629c6.754-.128,10.856-1.205,12.9-3.389a6.348,6.348,0,0,0,1.605-4.895C613.344,195.707,609.733,183.637,607.259,179.928Zm-13.46-5.29a16.363,16.363,0,0,0,1.822,1.726,56.6,56.6,0,0,1-1.127,6.326l-3.662,1.723,3.981,1.572c-1.234,3.021-8.1,19.761-10.585,24.8-0.883.01-2.576,0.051-3.456,0.073-0.488-.751-1.073-1.714-1.722-2.864,1.4-2.349,11.569-19.994,11.155-36.578A22.938,22.938,0,0,1,593.8,174.638Zm-25.75-1.86a18.387,18.387,0,0,0,7.022,3.421c-0.277,1.117-1.107,3.839-2.872,5.24l-0.724.574,0.876,0.292a4.807,4.807,0,0,1,2.157,1.578c-0.02,1.6-.248,9.886-0.362,13.972C571.17,190.682,568.432,181.71,568.049,172.778Zm21.166-.359c0,9.7-3.547,19.674-6.644,26.538-0.423-3.671-1.428-12.558-1.549-14.953a16.58,16.58,0,0,0,3.58-2.107l0.486-.366-0.454-.406c-0.866-.776-2.972-3.058-3.058-4.879A16.288,16.288,0,0,0,589.215,172.419Zm-22.467-35.847c0.945-2.07,2.314-3.119,4.068-3.119l0.33,0.007,0.15-.148c1.448-1.416,4.52-2.331,7.829-2.331a16.747,16.747,0,0,1,9.353,2.7c4.611,3.138,4.119,10.659,3.439,14.356a6.987,6.987,0,0,0-2.688-2.662,9.164,9.164,0,0,0-2.955-1.273,17.154,17.154,0,0,0-3.475-.646,21.22,21.22,0,0,0-3.3.056l-0.064,0c-3.873,0-6.452-.287-9.553-4.155l-0.423-.529-0.12.176L569.332,139l-0.355.541c-0.067.1-.123,0.206-0.188,0.308A22.811,22.811,0,0,0,565.7,147.9C565.226,145.157,565.165,140.04,566.748,136.572Zm-0.392,19.5-0.664.456a0.914,0.914,0,0,1-.532.179h0c-0.738-.02-1.53-1.247-1.485-2.978s0.874-2.9,1.639-2.9h0a0.824,0.824,0,0,1,.312.086l0.639,0.292,0.066-.7c0.017-.179.044-0.354,0.064-0.531a26.014,26.014,0,0,1,3.079-9.345c3.318,3.477,5.855,3.971,8.106,3.971,0.632,0,1.268-.044,1.886-0.088a29.271,29.271,0,0,1,6.475.526,11.729,11.729,0,0,1,2.916,1.259,7.281,7.281,0,0,1,2.626,4.2l0.118,2.176,0.565-1.693,0.069-.036a0.869,0.869,0,0,1,.4-0.113c0.74,0.019,1.532,1.247,1.487,2.977s-0.874,2.9-1.639,2.9a0.85,0.85,0,0,1-.389-0.131l-0.636-.366-0.108.727c-1.248,8.51-6.477,14.687-12.433,14.687-5.982,0-11.216-6.205-12.446-14.755Zm12.56,16.552c4,0,7.689-2.518,10.231-6.572-0.01,1.033-.013,2.4.008,3.905l-0.01,0,0.014,0.289c0,0.263.008,0.527,0.013,0.8-1.208,1.467-5.4,4.174-8.093,4.251l-0.2.006-0.141.14a3.281,3.281,0,0,1-2.329.744,3.88,3.88,0,0,1-2.362-.725l-0.134-.149-0.2-.015c-1.941-.143-5.27-1.795-7.679-3.8,0.087-.856.353-3.574,0.445-5.782C571.023,169.961,574.8,172.621,578.916,172.621Zm-16.88,2.989a7.729,7.729,0,0,0,3.748-2.233,5.043,5.043,0,0,1,1.244-.988c0.347,10.048,3.678,20.183,7.051,27.848v0.025l0.106,0.213c1.29,2.912,2.58,5.454,3.708,7.493v0l0.127,0.245,0.439,0.887,0.01-.02,0.966,1.861c-0.326.02-.71,0.037-1.146,0.052-1.537-.022-3.077-0.083-4.621-0.2-2.055-1.41-7.921-15.329-11.359-24.343l4.962-2.376-5.546-1.047A34.1,34.1,0,0,1,562.036,175.61Zm-3.6,32.58-0.12.027c-2.706.6-6.181-.474-8.654-2.676a7.173,7.173,0,0,1-2.74-6.036,73.476,73.476,0,0,1,4.055-17.545c1.785-4.862,6.023-5.36,9.919-5.378a32.514,32.514,0,0,0-.135,6.929l0.042,0.366,3.279,0.619-3.038,1.456,0.163,0.43c1.357,3.578,7.585,19.733,11.045,24.293a80.8,80.8,0,0,1-13.7-2.453Zm52.819-2.881c-1.857,1.981-5.752,2.957-12.256,3.073l-0.124.018a72.354,72.354,0,0,1-13.527,2.361c2.93-6.1,10.5-24.671,10.58-24.867l0.191-.468-2.769-1.093,2.006-.945,0.056-.236a58.187,58.187,0,0,0,1.209-6.826c6.584,0.287,7.752,1.077,9.8,4.156,2.356,3.532,5.929,15.5,6.167,20.663A5.4,5.4,0,0,1,611.257,205.309ZM555.94,175.035l1.234-.138-0.985-.756a25.231,25.231,0,0,0-9.769-4.341,33.717,33.717,0,0,1-.609-4.14,19.648,19.648,0,0,0,4.136-6.291c0.673-.627,6.158-6.039,3.844-13.6-2.016-6.589-8.435-8.026-11.1-8.338-4.5-.526-8.895.727-10.411,2.931-5.586.672-7.657,3.524-8.409,5.816-1.439,4.388.825,9.613,2.941,11.547l0.062-.068a18.291,18.291,0,0,0,5.024,8.092c-0.1.632-.333,2.125-0.53,3.426-2.146.426-13.419,4.808-13.419,15.915,0,8.054,13.126,8.054,21.812,8.054,0.313,0,5.39-.11,5.39-0.11l0.4-.009,0.291-1.378C546.9,186.5,549.127,175.794,555.94,175.035Zm-28.43-19.586a10.033,10.033,0,0,1,3.522-4.889,9.946,9.946,0,0,0,2.817-3.372c3.079,2.55,6.9,2.861,10.3,3.137,2.764,0.225,5.163.42,6.394,1.81-0.088,7.134-5.366,15.744-11.517,15.744C532.758,167.879,527.566,159.693,527.51,155.449Zm11.516,13.43a9.243,9.243,0,0,0,5.86-2.368,30.477,30.477,0,0,0,.938,5.034c-0.412.3-1.431,0.735-3.9,0.86-3.973.2-8.554-.567-9.823-1.36,0.134-1,.487-3.273.686-4.545A10.144,10.144,0,0,0,539.026,168.879Zm-7.794,2.755c1.186,1.1,5.712,1.8,9.427,1.8,0.454,0,.9-0.01,1.319-0.031,2.492-.127,4.1-0.588,4.791-1.37l0.185-.21-0.082-.268c-0.072-.232-0.137-0.467-0.2-0.7a19.079,19.079,0,0,1,3.379,1.05,16.752,16.752,0,0,1-10.417,3.386,18.626,18.626,0,0,1-11.107-4,15.987,15.987,0,0,1,2.681-1.05c-0.06.419-.108,0.766-0.133,0.975l-0.03.252Zm13.625,19.808-0.126.6c-1.2.026-4.713,0.1-4.972,0.1-10.53,0-20.812-.545-20.812-7.054,0-7.065,4.857-11.227,8.613-13.3a19.772,19.772,0,0,0,12.074,4.5,17.713,17.713,0,0,0,11.455-3.941,26.314,26.314,0,0,1,3.551,1.921C548.044,176.086,545.912,186.36,544.857,191.442Zm86.236-21.553c0.021-.205.041-0.41,0.041-0.6V168.9l-0.374-.1c-0.887-.231-1.706-0.53-2.5-0.819a13.7,13.7,0,0,0-2.586-.772v-2.05h-0.035a16.945,16.945,0,0,0,3.654-9.129H629.3c2.064-7.162,1.817-12.512-.732-15.9-2.575-3.421-6.859-3.931-9.185-3.931-4.71,0-7.628,1.107-8.909,3.382a3.3,3.3,0,0,0-2.1,1.442c-2.364,3.458-.464,11.748-0.192,12.869,0.017,5.216,1.975,9.8,4.913,12.422v1.647a10.8,10.8,0,0,0-6.648,1.851l-0.306.2,0.1,0.352c0.04,0.142.105,0.3,0.153,0.442a9.366,9.366,0,0,0-3.35,3.382l-0.364.6,0.685,0.149c2.493,0.544,4.6,2.737,6.443,6.707a78.253,78.253,0,0,1,3.971,10.362l0.078,0.314,0.318,0.057a63.87,63.87,0,0,0,8.023.759h0c3.4,0,14.875-.379,19.708-5.251l0.141-.142,0-.2C642.177,181.429,637.34,172.318,631.093,169.889Zm-3.173-.965c0.666,0.244,1.41.516,2.2,0.742-0.288,3.769-4.679,10.7-8.077,16,1.937-4.726,4.332-11.45,4.086-17.336C626.663,168.465,627.258,168.683,627.92,168.924ZM609.176,153.83a17.955,17.955,0,0,1,2.062-8.542,11.393,11.393,0,0,0,8.4,3.208,9.324,9.324,0,0,0,4.617-1.749,5.62,5.62,0,0,1,2.085-.974c0.125,0,.385,0,0.6.675a23.69,23.69,0,0,1,1.486,7.382c0,7.628-4.318,13.833-9.626,13.833S609.176,161.458,609.176,153.83Zm9.624,14.833a8.61,8.61,0,0,0,5.876-2.485v4.17a10.789,10.789,0,0,1-5.334,1.524,11.425,11.425,0,0,1-5.25-1.331v-3.433A8.215,8.215,0,0,0,618.8,168.663Zm-5.926.266c-0.014,4.644,3.057,12.8,5.064,17.757-1.11-1.612-2.337-3.268-3.54-4.893-2.991-4.04-6.08-8.212-7.091-11.337A9.909,9.909,0,0,1,612.874,168.929Zm9.3,23.213h0a64.627,64.627,0,0,1-7.515-.69,82.906,82.906,0,0,0-3.95-10.224c-1.82-3.919-3.935-6.242-6.45-7.074a7.95,7.95,0,0,1,2.469-2.4c1.284,3.085,4,6.762,6.864,10.628a93.828,93.828,0,0,1,5.65,8.193l0.422,0.731,0.438-.721c0.684-1.127,1.534-2.45,2.456-3.884,3.358-5.225,7.435-11.572,8.373-15.8,5.568,2.325,10.128,10.726,10.119,16.421C636.407,191.792,625.47,192.142,622.179,192.142Z" transform="translate(-517.938 -129.969)"/>
</svg>
