<svg xmlns="http://www.w3.org/2000/svg" width="150" height="76" viewBox="0 0 150 76">
  <metadata><?xpacket begin="﻿" id="W5M0MpCehiHzreSzNTczkc9d"?>
<x:xmpmeta xmlns:x="adobe:ns:meta/" x:xmptk="Adobe XMP Core 5.6-c138 79.159824, 2016/09/14-01:09:01        ">
   <rdf:RDF xmlns:rdf="http://www.w3.org/1999/02/22-rdf-syntax-ns#">
      <rdf:Description rdf:about=""/>
   </rdf:RDF>
</x:xmpmeta>
                                                                                                    
                                                                                                    
                                                                                                    
                                                                                                    
                                                                                                    
                                                                                                    
                                                                                                    
                                                                                                    
                                                                                                    
                                                                                                    
                                                                                                    
                                                                                                    
                                                                                                    
                                                                                                    
                                                                                                    
                                                                                                    
                                                                                                    
                                                                                                    
                                                                                                    
                                                                                                    
                           
<?xpacket end="w"?></metadata>
<defs>
    <style>
      .cls-1 {
        fill: #00c7d9;
        fill-rule: evenodd;
      }
    </style>
  </defs>
  <path id="Rounded_Rectangle_1" data-name="Rounded Rectangle 1" class="cls-1" d="M407.5,1069.75v-9.8h-16v9.8H375.831v4.26h47.337v-4.26H407.5ZM442,998H357a5,5,0,0,0-5,5v50.07a5,5,0,0,0,5,5h85a5,5,0,0,0,5-5V1003A5,5,0,0,0,442,998Zm1.5,53.862h-88v-50.07h88v50.07ZM472.242,1009h-16.5a2.781,2.781,0,0,0-2.749,2.81v33.38a2.784,2.784,0,0,0,2.749,2.82h16.5a2.783,2.783,0,0,0,2.749-2.82v-33.38A2.781,2.781,0,0,0,472.242,1009Zm-8.248,37.35a1.7,1.7,0,1,1,1.658-1.7A1.678,1.678,0,0,1,463.994,1046.35Zm9.211-4.76h-18.42v-29.27h18.42v29.27ZM344.243,1009h-16.5a2.781,2.781,0,0,0-2.749,2.81v33.38a2.784,2.784,0,0,0,2.749,2.82h16.5a2.783,2.783,0,0,0,2.748-2.82v-33.38A2.781,2.781,0,0,0,344.243,1009Zm-8.249,37.35a1.7,1.7,0,1,1,1.658-1.7A1.678,1.678,0,0,1,335.994,1046.35Zm9.211-4.76h-18.42v-29.27h18.42v29.27ZM336,1021a7,7,0,1,1-7,7A7,7,0,0,1,336,1021Zm128,0a7,7,0,1,1-7,7A7,7,0,0,1,464,1021Zm-63.5-12a19.5,19.5,0,1,1-19.5,19.5A19.5,19.5,0,0,1,400.5,1009Zm-5.229,16.52,3.526,6.74s5.728-13.69,14.762-18.26c-0.22,3.26-1.1,6.09.441,9.57-3.966.86-12.119,10.65-14.763,15.43-3.745-4.57-8.152-8.04-11.237-9.13Z" transform="translate(-325 -998)"/>
</svg>
