<svg xmlns="http://www.w3.org/2000/svg" width="120" height="68.76" viewBox="0 0 120 68.76">
  <metadata><?xpacket begin="﻿" id="W5M0MpCehiHzreSzNTczkc9d"?>
<x:xmpmeta xmlns:x="adobe:ns:meta/" x:xmptk="Adobe XMP Core 5.6-c138 79.159824, 2016/09/14-01:09:01        ">
   <rdf:RDF xmlns:rdf="http://www.w3.org/1999/02/22-rdf-syntax-ns#">
      <rdf:Description rdf:about=""/>
   </rdf:RDF>
</x:xmpmeta>
                                                                                                    
                                                                                                    
                                                                                                    
                                                                                                    
                                                                                                    
                                                                                                    
                                                                                                    
                                                                                                    
                                                                                                    
                                                                                                    
                                                                                                    
                                                                                                    
                                                                                                    
                                                                                                    
                                                                                                    
                                                                                                    
                                                                                                    
                                                                                                    
                                                                                                    
                                                                                                    
                           
<?xpacket end="w"?></metadata>
<defs>
    <style>
      .cls-1 {
        fill: #00c7d9;
        fill-rule: evenodd;
      }
    </style>
  </defs>
  <path id="TRAFFICK" class="cls-1" d="M209.247,1032.47a3.243,3.243,0,0,1,.842-1.08h-1.011A9.577,9.577,0,0,1,209.247,1032.47ZM139,1026.39v4a5,5,0,0,0,5,5h50.169c0-1.33.01-2.68,0.014-4H144A5,5,0,0,1,139,1026.39Zm115,5H215.724a4.682,4.682,0,0,1,1.382,3.75c-0.013-.77,1.274-2.61,3.925-2.14a3.562,3.562,0,0,1,2.65,2.39H254a5,5,0,0,0,5-5v-4A5,5,0,0,1,254,1031.39Zm-52.3,2.28v-3.28c0-1.76.01-4.04,0.019-6.15,0.008-1.8.014-3.48,0.014-4.59,0-1.27-.419-3.4-3.231-3.4-2.645,0-3.291.96-3.291,4.9,0,1.84-.014,6.3-0.029,10.96l0,0.5H144.5a5.508,5.508,0,0,1-5.5-5.5v-20a5.508,5.508,0,0,1,5.5-5.5h109a5.508,5.508,0,0,1,5.5,5.5v20a5.508,5.508,0,0,1-5.5,5.5H216.58l-0.147-.23a3.656,3.656,0,0,0-2.981-1.47,3.465,3.465,0,0,0-3.07,1.47l-0.149.23h-0.974l-0.056-.44c-0.3-2.36-1.262-3.49-3.024-3.55-2.535-.1-3.21.98-3.5,1.92Zm15.411-2.06H253.5a4.506,4.506,0,0,0,4.5-4.5v-20a4.506,4.506,0,0,0-4.5-4.5h-109a4.506,4.506,0,0,0-4.5,4.5v20a4.506,4.506,0,0,0,4.5,4.5h49.683c0.014-4.47.027-8.68,0.027-10.46,0-3.91.663-5.9,4.291-5.9,2.649,0,4.231,1.64,4.231,4.4,0,1.11-.006,2.79-0.014,4.59-0.006,1.45-.013,2.99-0.016,4.37a4.652,4.652,0,0,1,3.516-.99c2.042,0.07,3.329,1.28,3.835,3.59a4.541,4.541,0,0,1,3.48-1.29A4.636,4.636,0,0,1,217.109,1031.61Zm8.041,7.15-0.024-1.06c-0.058-3.05-1.6-5.28-3.921-5.69a4.871,4.871,0,0,0-3.488.62c-0.677-1.94-2.231-3.01-4.643-3.21a5.152,5.152,0,0,0-3.244.89,4.255,4.255,0,0,0-4.093-3.19,5.932,5.932,0,0,0-3.033.55c0-1.12.009-2.3,0.014-3.42,0.008-1.81.014-3.49,0.014-4.6,0-3.02-1.813-4.9-4.731-4.9-4.432,0-4.792,2.9-4.792,6.41,0,3.63-.052,17.46-0.072,22.87a11.259,11.259,0,0,0-6.021-1.76,6.837,6.837,0,0,0-4.573,1.43c-1.371,1.27-1.951,2.49-1.773,3.76,0.236,1.66,1.734,3.12,4.715,4.61,6.027,3.01,8.353,6.44,8.921,7.42,3.2,5.51,6.959,10.9,14.625,10.9h0a18.352,18.352,0,0,0,3.064-.28c10.086-1.74,11.7-9.05,12.562-12.98C225.5,1053.3,225.246,1042.74,225.15,1038.76Zm-2.445,17.94c-0.871,3.95-2.187,9.92-10.951,11.44a16.394,16.394,0,0,1-2.723.25c-6.608,0-9.87-4.69-12.894-9.9-0.641-1.1-3.235-4.96-9.759-8.21-2.984-1.49-3.554-2.58-3.628-3.1a2.551,2.551,0,0,1,1.148-2,4.947,4.947,0,0,1,3.218-.91,8.442,8.442,0,0,1,6.253,2.59l1.748,1.88s0.092-23.03.092-27.58c0-3.89.682-4.41,2.792-4.41,2.5,0,2.731,1.83,2.731,3.15,0,1.11,0,22.27,0,22.27a1,1,0,0,0,1,.99h0a1,1,0,0,0,1-1l-0.031-11.59c0.286-.81.914-1.53,2.96-1.45,1.058,0.04,2.309.47,2.593,3.45l0.087,0.91-0.084,9.54a1,1,0,0,0,.991,1.01h0.009a1,1,0,0,0,1-.99l0.092-10.47a2.97,2.97,0,0,1,2.565-1.15c2.265,0.18,3.161,1.22,3.193,3.73l-0.029,7.6a1,1,0,0,0,.959,1.04h0.041a1,1,0,0,0,1-.96l0.031-7.64c0-.01,0-0.02,0-0.04h0a2.1,2.1,0,0,1,2.1-1.22,3.7,3.7,0,0,1,.651.05c1.338,0.24,2.227,1.71,2.266,3.75l0.024,1.08C223.245,1042.72,223.5,1053.11,222.705,1056.7Z" transform="translate(-139 -1001.62)"/>
</svg>
